<svg width="724" height="483" viewBox="0 0 724 483" fill="none" xmlns="http://www.w3.org/2000/svg">
<rect width="724" height="483" fill="white"/>
<path d="M448.211 145.032H361.793C338.24 145.033 315.514 153.735 297.957 169.472C280.4 185.21 269.244 206.881 266.62 230.344C258.589 215.729 254.496 199.269 254.744 182.585C254.993 165.902 259.574 149.571 268.036 135.203C276.498 120.835 288.55 108.925 303.002 100.648C317.455 92.3706 333.81 88.0114 350.455 88H499.586L448.211 145.032Z" fill="#E41C22"/>
<path d="M275.375 337H361.793C385.346 336.999 408.073 328.298 425.63 312.56C443.187 296.822 454.343 275.151 456.966 251.688C465.004 266.304 469.103 282.767 468.858 299.455C468.613 316.142 464.033 332.478 455.57 346.85C447.107 361.222 435.053 373.135 420.596 381.414C406.14 389.692 389.78 394.051 373.131 394.06H224L275.375 337Z" fill="#E41C22"/>
<path d="M361.793 318.112C404.27 318.112 438.704 283.595 438.704 241.016C438.704 198.437 404.27 163.92 361.793 163.92C319.317 163.92 284.883 198.437 284.883 241.016C284.883 283.595 319.317 318.112 361.793 318.112Z" fill="#E41C22"/>
</svg>
